<mxfile host="Electron" modified="2024-02-10T19:31:39.995Z" agent="Mozilla/5.0 (Windows NT 10.0; Win64; x64) AppleWebKit/537.36 (KHTML, like Gecko) draw.io/23.0.2 Chrome/120.0.6099.109 Electron/28.1.0 Safari/537.36" etag="H1bUgSyRhxuLtbHnon6W" version="23.0.2" type="device">
  <diagram name="Page-1" id="S-kaVBQBmPrSJZPV6nAG">
    <mxGraphModel dx="1434" dy="844" grid="1" gridSize="10" guides="1" tooltips="1" connect="1" arrows="1" fold="1" page="1" pageScale="1" pageWidth="850" pageHeight="1100" math="0" shadow="0">
      <root>
        <mxCell id="0" />
        <mxCell id="1" parent="0" />
        <mxCell id="uxI9nUiW6412I8rUyzKc-24" style="edgeStyle=orthogonalEdgeStyle;rounded=0;orthogonalLoop=1;jettySize=auto;html=1;exitX=0.75;exitY=1;exitDx=0;exitDy=0;" edge="1" parent="1" source="uxI9nUiW6412I8rUyzKc-1">
          <mxGeometry relative="1" as="geometry">
            <mxPoint x="380" y="440" as="targetPoint" />
          </mxGeometry>
        </mxCell>
        <mxCell id="uxI9nUiW6412I8rUyzKc-1" value="red castle valley" style="whiteSpace=wrap;html=1;aspect=fixed;" vertex="1" parent="1">
          <mxGeometry x="290" y="260" width="120" height="120" as="geometry" />
        </mxCell>
        <mxCell id="uxI9nUiW6412I8rUyzKc-13" style="edgeStyle=orthogonalEdgeStyle;rounded=0;orthogonalLoop=1;jettySize=auto;html=1;entryX=1;entryY=0.5;entryDx=0;entryDy=0;" edge="1" parent="1" source="uxI9nUiW6412I8rUyzKc-2" target="uxI9nUiW6412I8rUyzKc-10">
          <mxGeometry relative="1" as="geometry" />
        </mxCell>
        <mxCell id="uxI9nUiW6412I8rUyzKc-2" value="mansion yard" style="whiteSpace=wrap;html=1;aspect=fixed;" vertex="1" parent="1">
          <mxGeometry x="290" y="90" width="120" height="120" as="geometry" />
        </mxCell>
        <mxCell id="uxI9nUiW6412I8rUyzKc-4" value="forest" style="rounded=0;whiteSpace=wrap;html=1;" vertex="1" parent="1">
          <mxGeometry x="170" y="260" width="50" height="120" as="geometry" />
        </mxCell>
        <mxCell id="uxI9nUiW6412I8rUyzKc-6" value="alleyway" style="rounded=0;whiteSpace=wrap;html=1;" vertex="1" parent="1">
          <mxGeometry x="80" y="100" width="160" height="40" as="geometry" />
        </mxCell>
        <mxCell id="uxI9nUiW6412I8rUyzKc-7" value="" style="endArrow=classic;startArrow=classic;html=1;rounded=0;exitX=1;exitY=0.5;exitDx=0;exitDy=0;" edge="1" parent="1" source="uxI9nUiW6412I8rUyzKc-4">
          <mxGeometry width="50" height="50" relative="1" as="geometry">
            <mxPoint x="460" y="360" as="sourcePoint" />
            <mxPoint x="290" y="320" as="targetPoint" />
          </mxGeometry>
        </mxCell>
        <mxCell id="uxI9nUiW6412I8rUyzKc-8" value="" style="endArrow=classic;startArrow=classic;html=1;rounded=0;exitX=0.5;exitY=1;exitDx=0;exitDy=0;entryX=0.5;entryY=0;entryDx=0;entryDy=0;" edge="1" parent="1" source="uxI9nUiW6412I8rUyzKc-2" target="uxI9nUiW6412I8rUyzKc-1">
          <mxGeometry width="50" height="50" relative="1" as="geometry">
            <mxPoint x="480" y="319.5" as="sourcePoint" />
            <mxPoint x="550" y="319.5" as="targetPoint" />
          </mxGeometry>
        </mxCell>
        <mxCell id="uxI9nUiW6412I8rUyzKc-9" value="" style="endArrow=classic;startArrow=classic;html=1;rounded=0;exitX=1;exitY=0.5;exitDx=0;exitDy=0;entryX=0;entryY=0.25;entryDx=0;entryDy=0;" edge="1" parent="1" source="uxI9nUiW6412I8rUyzKc-6" target="uxI9nUiW6412I8rUyzKc-2">
          <mxGeometry width="50" height="50" relative="1" as="geometry">
            <mxPoint x="240" y="340" as="sourcePoint" />
            <mxPoint x="250" y="160" as="targetPoint" />
          </mxGeometry>
        </mxCell>
        <mxCell id="uxI9nUiW6412I8rUyzKc-16" style="edgeStyle=orthogonalEdgeStyle;rounded=0;orthogonalLoop=1;jettySize=auto;html=1;entryX=1;entryY=0.5;entryDx=0;entryDy=0;" edge="1" parent="1" source="uxI9nUiW6412I8rUyzKc-10" target="uxI9nUiW6412I8rUyzKc-15">
          <mxGeometry relative="1" as="geometry" />
        </mxCell>
        <mxCell id="uxI9nUiW6412I8rUyzKc-10" value="basement entrance" style="rounded=0;whiteSpace=wrap;html=1;" vertex="1" parent="1">
          <mxGeometry x="170" y="30" width="160" height="40" as="geometry" />
        </mxCell>
        <mxCell id="uxI9nUiW6412I8rUyzKc-11" value="" style="endArrow=classic;startArrow=classic;html=1;rounded=0;entryX=1;entryY=0.75;entryDx=0;entryDy=0;exitX=-0.02;exitY=0.5;exitDx=0;exitDy=0;exitPerimeter=0;" edge="1" parent="1" source="uxI9nUiW6412I8rUyzKc-12" target="uxI9nUiW6412I8rUyzKc-2">
          <mxGeometry width="50" height="50" relative="1" as="geometry">
            <mxPoint x="510" y="180" as="sourcePoint" />
            <mxPoint x="360" y="270" as="targetPoint" />
          </mxGeometry>
        </mxCell>
        <mxCell id="uxI9nUiW6412I8rUyzKc-12" value="Next area???" style="text;html=1;align=center;verticalAlign=middle;resizable=0;points=[];autosize=1;strokeColor=none;fillColor=none;" vertex="1" parent="1">
          <mxGeometry x="443" y="165" width="100" height="30" as="geometry" />
        </mxCell>
        <mxCell id="uxI9nUiW6412I8rUyzKc-17" style="edgeStyle=orthogonalEdgeStyle;rounded=0;orthogonalLoop=1;jettySize=auto;html=1;exitX=0.25;exitY=1;exitDx=0;exitDy=0;entryX=0;entryY=0.75;entryDx=0;entryDy=0;" edge="1" parent="1" source="uxI9nUiW6412I8rUyzKc-15" target="uxI9nUiW6412I8rUyzKc-2">
          <mxGeometry relative="1" as="geometry" />
        </mxCell>
        <mxCell id="uxI9nUiW6412I8rUyzKc-15" value="Boss Room" style="rounded=0;whiteSpace=wrap;html=1;" vertex="1" parent="1">
          <mxGeometry x="20" y="20" width="120" height="60" as="geometry" />
        </mxCell>
        <mxCell id="uxI9nUiW6412I8rUyzKc-21" value="gate" style="rhombus;whiteSpace=wrap;html=1;" vertex="1" parent="1">
          <mxGeometry x="160" y="290" width="70" height="20" as="geometry" />
        </mxCell>
        <mxCell id="uxI9nUiW6412I8rUyzKc-22" value="guard" style="rhombus;whiteSpace=wrap;html=1;" vertex="1" parent="1">
          <mxGeometry x="315" y="230" width="70" height="20" as="geometry" />
        </mxCell>
        <mxCell id="uxI9nUiW6412I8rUyzKc-25" value="Next area??" style="text;html=1;align=center;verticalAlign=middle;resizable=0;points=[];autosize=1;strokeColor=none;fillColor=none;" vertex="1" parent="1">
          <mxGeometry x="335" y="448" width="90" height="30" as="geometry" />
        </mxCell>
        <mxCell id="uxI9nUiW6412I8rUyzKc-26" value="big ol rock" style="rhombus;whiteSpace=wrap;html=1;" vertex="1" parent="1">
          <mxGeometry x="345" y="390" width="70" height="20" as="geometry" />
        </mxCell>
        <mxCell id="uxI9nUiW6412I8rUyzKc-27" value="big ol rock" style="rhombus;whiteSpace=wrap;html=1;" vertex="1" parent="1">
          <mxGeometry x="385" y="160" width="70" height="20" as="geometry" />
        </mxCell>
        <mxCell id="uxI9nUiW6412I8rUyzKc-28" value="eagle&lt;br&gt;statue" style="rhombus;whiteSpace=wrap;html=1;" vertex="1" parent="1">
          <mxGeometry x="345" y="50" width="70" height="40" as="geometry" />
        </mxCell>
        <mxCell id="uxI9nUiW6412I8rUyzKc-32" value="pickle for guard" style="ellipse;whiteSpace=wrap;html=1;" vertex="1" parent="1">
          <mxGeometry x="160" y="340" width="80" height="32" as="geometry" />
        </mxCell>
        <mxCell id="uxI9nUiW6412I8rUyzKc-33" value="sword" style="ellipse;whiteSpace=wrap;html=1;" vertex="1" parent="1">
          <mxGeometry x="170" y="260" width="50" height="20" as="geometry" />
        </mxCell>
        <mxCell id="uxI9nUiW6412I8rUyzKc-35" value="statue&amp;nbsp;&lt;span style=&quot;&quot;&gt;key &lt;br&gt;(in dirt)&lt;/span&gt;" style="ellipse;whiteSpace=wrap;html=1;" vertex="1" parent="1">
          <mxGeometry x="50" y="105" width="70" height="30" as="geometry" />
        </mxCell>
        <mxCell id="uxI9nUiW6412I8rUyzKc-36" value="gate&amp;nbsp;&lt;span style=&quot;&quot;&gt;key &lt;br&gt;(in dirt)&lt;/span&gt;" style="ellipse;whiteSpace=wrap;html=1;" vertex="1" parent="1">
          <mxGeometry x="365" y="350" width="65" height="30" as="geometry" />
        </mxCell>
        <mxCell id="uxI9nUiW6412I8rUyzKc-37" value="shovel" style="ellipse;whiteSpace=wrap;html=1;" vertex="1" parent="1">
          <mxGeometry x="260" y="195" width="50" height="20" as="geometry" />
        </mxCell>
        <mxCell id="uxI9nUiW6412I8rUyzKc-38" value="chandelier" style="ellipse;whiteSpace=wrap;html=1;" vertex="1" parent="1">
          <mxGeometry x="90" y="20" width="70" height="20" as="geometry" />
        </mxCell>
        <mxCell id="uxI9nUiW6412I8rUyzKc-39" style="edgeStyle=orthogonalEdgeStyle;rounded=0;orthogonalLoop=1;jettySize=auto;html=1;exitX=0.5;exitY=1;exitDx=0;exitDy=0;" edge="1" parent="1" source="uxI9nUiW6412I8rUyzKc-38" target="uxI9nUiW6412I8rUyzKc-38">
          <mxGeometry relative="1" as="geometry" />
        </mxCell>
        <mxCell id="uxI9nUiW6412I8rUyzKc-40" value="Player start" style="shape=umlActor;verticalLabelPosition=bottom;verticalAlign=top;html=1;outlineConnect=0;" vertex="1" parent="1">
          <mxGeometry x="320" y="340" width="10" height="20" as="geometry" />
        </mxCell>
      </root>
    </mxGraphModel>
  </diagram>
</mxfile>
